<mxfile host="65bd71144e">
    <diagram id="Qmp6cWyzQ_ETF1z6yTVq" name="Page-1">
        <mxGraphModel dx="-3118" dy="1332" grid="1" gridSize="10" guides="1" tooltips="1" connect="1" arrows="1" fold="1" page="1" pageScale="1" pageWidth="850" pageHeight="1100" math="0" shadow="0">
            <root>
                <mxCell id="0"/>
                <mxCell id="1" parent="0"/>
                <mxCell id="40" value="Address Generator" style="ellipse;whiteSpace=wrap;html=1;aspect=fixed;sketch=0;fillColor=#e1d5e7;strokeColor=#9673a6;verticalAlign=bottom;spacingTop=0;spacing=-17;fontStyle=1" parent="1" vertex="1">
                    <mxGeometry x="3673" y="-903.5" width="117.5" height="117.5" as="geometry"/>
                </mxCell>
                <mxCell id="49" style="edgeStyle=none;html=1;exitX=1;exitY=0;exitDx=0;exitDy=0;fontSize=6;startArrow=none;startFill=0;endArrow=classic;endFill=1;" parent="1" source="45" edge="1">
                    <mxGeometry relative="1" as="geometry">
                        <mxPoint x="3820" y="-870" as="targetPoint"/>
                        <Array as="points">
                            <mxPoint x="3800" y="-870"/>
                        </Array>
                    </mxGeometry>
                </mxCell>
                <mxCell id="59" value="addr" style="edgeLabel;html=1;align=center;verticalAlign=middle;resizable=0;points=[];fontSize=6;fontColor=default;fontStyle=1" parent="49" vertex="1" connectable="0">
                    <mxGeometry x="0.6415" relative="1" as="geometry">
                        <mxPoint y="10" as="offset"/>
                    </mxGeometry>
                </mxCell>
                <mxCell id="50" style="edgeStyle=none;html=1;exitX=1;exitY=1;exitDx=0;exitDy=0;fontSize=6;startArrow=none;startFill=0;endArrow=classic;endFill=1;" parent="1" source="45" edge="1">
                    <mxGeometry relative="1" as="geometry">
                        <mxPoint x="3820" y="-830" as="targetPoint"/>
                        <mxPoint x="3792.4999999999977" y="-850.09" as="sourcePoint"/>
                        <Array as="points">
                            <mxPoint x="3800" y="-830"/>
                        </Array>
                    </mxGeometry>
                </mxCell>
                <mxCell id="60" value="en" style="edgeLabel;html=1;align=center;verticalAlign=middle;resizable=0;points=[];fontSize=6;fontColor=default;fontStyle=1" parent="50" vertex="1" connectable="0">
                    <mxGeometry x="0.6569" relative="1" as="geometry">
                        <mxPoint x="2" y="10" as="offset"/>
                    </mxGeometry>
                </mxCell>
                <mxCell id="52" style="edgeStyle=none;html=1;exitX=0;exitY=1;exitDx=0;exitDy=0;fontSize=6;startArrow=classic;startFill=1;endArrow=none;endFill=0;" parent="1" source="45" edge="1">
                    <mxGeometry relative="1" as="geometry">
                        <mxPoint x="3630" y="-820" as="targetPoint"/>
                        <Array as="points">
                            <mxPoint x="3740" y="-820"/>
                        </Array>
                    </mxGeometry>
                </mxCell>
                <mxCell id="55" value="ag_prog" style="edgeLabel;html=1;align=center;verticalAlign=top;resizable=0;points=[];fontSize=6;labelPosition=center;verticalLabelPosition=bottom;fontStyle=1" parent="52" vertex="1" connectable="0">
                    <mxGeometry x="0.7045" y="-1" relative="1" as="geometry">
                        <mxPoint x="-10" y="1" as="offset"/>
                    </mxGeometry>
                </mxCell>
                <mxCell id="53" style="edgeStyle=none;html=1;exitX=0.5;exitY=1;exitDx=0;exitDy=0;fontSize=6;startArrow=classic;startFill=1;endArrow=none;endFill=0;" parent="1" source="45" edge="1">
                    <mxGeometry relative="1" as="geometry">
                        <mxPoint x="3630" y="-800" as="targetPoint"/>
                        <Array as="points">
                            <mxPoint x="3767" y="-800"/>
                        </Array>
                    </mxGeometry>
                </mxCell>
                <mxCell id="57" value="enable" style="edgeLabel;html=1;align=center;verticalAlign=middle;resizable=0;points=[];fontSize=6;fontStyle=1" parent="53" vertex="1" connectable="0">
                    <mxGeometry x="0.7367" y="-1" relative="1" as="geometry">
                        <mxPoint x="-13" y="11" as="offset"/>
                    </mxGeometry>
                </mxCell>
                <mxCell id="45" value="Controller" style="ellipse;whiteSpace=wrap;html=1;aspect=fixed;sketch=0;fillColor=#e1d5e7;strokeColor=#9673a6;verticalAlign=middle;horizontal=1;fontSize=5;fontStyle=1" parent="1" vertex="1">
                    <mxGeometry x="3751.63" y="-865" width="30" height="30" as="geometry"/>
                </mxCell>
                <mxCell id="46" value="" style="group" parent="1" vertex="1" connectable="0">
                    <mxGeometry x="3690" y="-870" width="43.75" height="50" as="geometry"/>
                </mxCell>
                <mxCell id="43" value="SRAM" style="rounded=0;whiteSpace=wrap;html=1;fontSize=8;labelBackgroundColor=none;fillColor=none;fontStyle=1;strokeWidth=1;" parent="46" vertex="1">
                    <mxGeometry width="37.5" height="10" as="geometry"/>
                </mxCell>
                <mxCell id="44" value="Program Memory" style="rounded=0;whiteSpace=wrap;html=1;fontSize=8;labelBackgroundColor=none;fillColor=none;fontStyle=1;strokeWidth=1;" parent="46" vertex="1">
                    <mxGeometry width="37.5" height="40" as="geometry"/>
                </mxCell>
                <mxCell id="47" style="edgeStyle=none;html=1;entryX=0;entryY=0.5;entryDx=0;entryDy=0;fontSize=6;exitX=1;exitY=0.5;exitDx=0;exitDy=0;startArrow=classic;startFill=1;endSize=1;startSize=1;" parent="1" source="44" target="45" edge="1">
                    <mxGeometry relative="1" as="geometry">
                        <Array as="points"/>
                    </mxGeometry>
                </mxCell>
                <mxCell id="58" value="cur_desc" style="edgeLabel;html=1;align=center;verticalAlign=middle;resizable=0;points=[];fontSize=6;fontColor=default;labelBackgroundColor=none;rotation=-60;fontStyle=1" parent="47" vertex="1" connectable="0">
                    <mxGeometry x="0.1368" relative="1" as="geometry">
                        <mxPoint y="-15" as="offset"/>
                    </mxGeometry>
                </mxCell>
                <mxCell id="48" style="edgeStyle=none;html=1;fontSize=6;startArrow=classic;startFill=1;endArrow=none;endFill=0;exitX=0;exitY=0.5;exitDx=0;exitDy=0;labelPosition=center;verticalLabelPosition=top;align=right;verticalAlign=middle;strokeWidth=2;" parent="1" source="44" edge="1">
                    <mxGeometry relative="1" as="geometry">
                        <mxPoint x="3630" y="-850" as="targetPoint"/>
                    </mxGeometry>
                </mxCell>
                <mxCell id="54" value="Memory &lt;br&gt;Mapped &lt;br&gt;Interface" style="edgeLabel;html=1;align=center;verticalAlign=top;resizable=0;points=[];fontSize=6;labelPosition=right;verticalLabelPosition=bottom;fontStyle=3" parent="48" vertex="1" connectable="0">
                    <mxGeometry x="0.5129" y="-1" relative="1" as="geometry">
                        <mxPoint x="-5" y="1" as="offset"/>
                    </mxGeometry>
                </mxCell>
            </root>
        </mxGraphModel>
    </diagram>
</mxfile>